<svg width="960" height="720" viewBox="0 0 960 720" fill="none" xmlns="http://www.w3.org/2000/svg">
  <defs>
    <linearGradient id="bg" x1="120" y1="40" x2="820" y2="640" gradientUnits="userSpaceOnUse">
      <stop stop-color="#161D35"/>
      <stop offset="1" stop-color="#0D1224"/>
    </linearGradient>
    <linearGradient id="line" x1="174" y1="124" x2="756" y2="124" gradientUnits="userSpaceOnUse">
      <stop stop-color="#8E83FF"/>
      <stop offset="1" stop-color="#79E1C3"/>
    </linearGradient>
    <linearGradient id="chip" x1="0" y1="0" x2="190" y2="60" gradientUnits="userSpaceOnUse">
      <stop stop-color="#8E83FF"/>
      <stop offset="1" stop-color="#FF7FA7"/>
    </linearGradient>
  </defs>
  <rect width="960" height="720" rx="36" fill="url(#bg)"/>
  <circle cx="130" cy="98" r="68" fill="#8E83FF" fill-opacity="0.18"/>
  <circle cx="810" cy="112" r="84" fill="#79E1C3" fill-opacity="0.13"/>
  <circle cx="785" cy="600" r="98" fill="#FFBF73" fill-opacity="0.09"/>

  <rect x="92" y="90" width="776" height="496" rx="28" fill="#121933" stroke="#FFFFFF" stroke-opacity="0.1"/>
  <rect x="92" y="90" width="776" height="58" rx="28" fill="#1A2342"/>
  <circle cx="132" cy="119" r="8" fill="#FF7FA7"/>
  <circle cx="158" cy="119" r="8" fill="#FFBF73"/>
  <circle cx="184" cy="119" r="8" fill="#79E1C3"/>

  <rect x="132" y="178" width="212" height="58" rx="18" fill="url(#chip)"/>
  <text x="166" y="214" fill="white" font-family="Inter, Arial, sans-serif" font-size="22" font-weight="700">Task 13  IP</text>
  <rect x="366" y="178" width="212" height="58" rx="18" fill="#1C2648" stroke="#2C3968"/>
  <text x="404" y="214" fill="#D9E2FF" font-family="Inter, Arial, sans-serif" font-size="22" font-weight="700">Task 22  DAG</text>
  <rect x="600" y="178" width="212" height="58" rx="18" fill="#1C2648" stroke="#2C3968"/>
  <text x="636" y="214" fill="#D9E2FF" font-family="Inter, Arial, sans-serif" font-size="22" font-weight="700">Task 27  Clusters</text>

  <rect x="132" y="276" width="402" height="228" rx="24" fill="#0D1328" stroke="#243154"/>
  <rect x="158" y="308" width="332" height="10" rx="5" fill="url(#line)"/>
  <rect x="158" y="338" width="248" height="10" rx="5" fill="#2A355A"/>
  <rect x="158" y="368" width="296" height="10" rx="5" fill="#2A355A"/>
  <rect x="158" y="398" width="220" height="10" rx="5" fill="#2A355A"/>
  <rect x="158" y="438" width="150" height="42" rx="14" fill="#171F3B"/>
  <text x="184" y="466" fill="#79E1C3" font-family="JetBrains Mono, monospace" font-size="20">for x in ...</text>

  <rect x="566" y="276" width="246" height="228" rx="24" fill="#0F152C" stroke="#243154"/>
  <circle cx="644" cy="338" r="14" fill="#8E83FF"/>
  <circle cx="742" cy="338" r="14" fill="#79E1C3"/>
  <circle cx="644" cy="438" r="14" fill="#FF7FA7"/>
  <circle cx="742" cy="438" r="14" fill="#FFBF73"/>
  <line x1="658" y1="338" x2="728" y2="338" stroke="#5168B0" stroke-width="4"/>
  <line x1="644" y1="352" x2="644" y2="424" stroke="#5168B0" stroke-width="4"/>
  <line x1="742" y1="352" x2="742" y2="424" stroke="#5168B0" stroke-width="4"/>
  <line x1="658" y1="438" x2="728" y2="438" stroke="#5168B0" stroke-width="4"/>
  <text x="610" y="486" fill="#D9E2FF" font-family="Inter, Arial, sans-serif" font-size="18" font-weight="600">states, paths, dependencies</text>

  <rect x="138" y="548" width="220" height="92" rx="22" fill="#171F3B" stroke="#2B3965"/>
  <text x="170" y="586" fill="#D9E2FF" font-family="Inter, Arial, sans-serif" font-size="20" font-weight="700">Python / Java</text>
  <text x="170" y="616" fill="#AEB9D8" font-family="Inter, Arial, sans-serif" font-size="16">short templates for each task</text>

  <rect x="386" y="548" width="220" height="92" rx="22" fill="#171F3B" stroke="#2B3965"/>
  <text x="420" y="586" fill="#D9E2FF" font-family="Inter, Arial, sans-serif" font-size="20" font-weight="700">C++ / Rust</text>
  <text x="420" y="616" fill="#AEB9D8" font-family="Inter, Arial, sans-serif" font-size="16">practical algorithm skeletons</text>

  <rect x="634" y="548" width="178" height="92" rx="22" fill="#171F3B" stroke="#2B3965"/>
  <text x="664" y="586" fill="#FFBF73" font-family="Inter, Arial, sans-serif" font-size="20" font-weight="700">1-27</text>
  <text x="664" y="616" fill="#AEB9D8" font-family="Inter, Arial, sans-serif" font-size="16">real exam topics</text>
</svg>
